<svg width="1280" height="720" viewBox="0 0 1280 720" fill="none" xmlns="http://www.w3.org/2000/svg">
  <defs>
    <linearGradient id="bg" x1="0" y1="0" x2="1280" y2="720" gradientUnits="userSpaceOnUse">
      <stop stop-color="#08111F"/>
      <stop offset="0.48" stop-color="#0B1020"/>
      <stop offset="1" stop-color="#101827"/>
    </linearGradient>
    <linearGradient id="accent" x1="162" y1="123" x2="1114" y2="585" gradientUnits="userSpaceOnUse">
      <stop stop-color="#38BDF8"/>
      <stop offset="0.45" stop-color="#8B5CF6"/>
      <stop offset="1" stop-color="#22C55E"/>
    </linearGradient>
    <filter id="soft" x="-20%" y="-20%" width="140%" height="140%">
      <feGaussianBlur stdDeviation="24"/>
    </filter>
  </defs>

  <rect width="1280" height="720" fill="url(#bg)"/>
  <path d="M196 154C344 57 526 91 642 166C763 244 871 224 1011 170C1099 136 1176 184 1188 271C1204 391 1098 517 934 565C758 617 648 537 512 545C368 553 266 642 155 557C44 473 53 248 196 154Z" fill="url(#accent)" opacity="0.16" filter="url(#soft)"/>

  <rect x="86" y="72" width="1108" height="576" rx="32" fill="#0B1220" stroke="#1F2A3D" stroke-width="2"/>

  <rect x="128" y="118" width="242" height="484" rx="24" fill="#0F172A" stroke="#223047"/>
  <rect x="158" y="152" width="48" height="48" rx="14" fill="#2563EB"/>
  <path d="M176 184L183 166H190L197 184H191L190 180H183L182 184H176ZM184 176H189L187 169L184 176Z" fill="white"/>
  <text x="222" y="174" fill="#F8FAFC" font-family="Inter, Arial, sans-serif" font-size="22" font-weight="700">ASR-Pro</text>
  <text x="222" y="198" fill="#94A3B8" font-family="Inter, Arial, sans-serif" font-size="13">Command Center</text>

  <g fill="#CBD5E1" font-family="Inter, Arial, sans-serif" font-size="15" font-weight="600">
    <text x="158" y="260">Dashboard</text>
    <text x="158" y="310">Live ASR</text>
    <text x="158" y="360">Conversations</text>
    <text x="158" y="410">Risk Signals</text>
    <text x="158" y="460">Compliance</text>
    <text x="158" y="510">Analytics</text>
  </g>
  <g fill="#334155">
    <rect x="158" y="235" width="172" height="1"/>
    <rect x="158" y="285" width="172" height="1"/>
    <rect x="158" y="335" width="172" height="1"/>
    <rect x="158" y="385" width="172" height="1"/>
    <rect x="158" y="435" width="172" height="1"/>
    <rect x="158" y="485" width="172" height="1"/>
  </g>

  <rect x="410" y="118" width="742" height="176" rx="28" fill="#101827" stroke="#223047"/>
  <text x="452" y="166" fill="#38BDF8" font-family="Inter, Arial, sans-serif" font-size="14" font-weight="800" letter-spacing="2">ENTERPRISE SPEECH INTELLIGENCE</text>
  <text x="452" y="214" fill="#F8FAFC" font-family="Inter, Arial, sans-serif" font-size="42" font-weight="800">From speech to action.</text>
  <text x="452" y="250" fill="#94A3B8" font-family="Inter, Arial, sans-serif" font-size="18">Transcription, compliance, churn risk, empathy and trend intelligence in one stack.</text>

  <rect x="410" y="322" width="226" height="132" rx="24" fill="#0F172A" stroke="#223047"/>
  <rect x="666" y="322" width="226" height="132" rx="24" fill="#0F172A" stroke="#223047"/>
  <rect x="922" y="322" width="230" height="132" rx="24" fill="#0F172A" stroke="#223047"/>
  <text x="438" y="366" fill="#F8FAFC" font-family="Inter, Arial, sans-serif" font-size="34" font-weight="800">88%</text>
  <text x="438" y="397" fill="#94A3B8" font-family="Inter, Arial, sans-serif" font-size="15" font-weight="700">backend coverage</text>
  <text x="694" y="366" fill="#F8FAFC" font-family="Inter, Arial, sans-serif" font-size="34" font-weight="800">WS</text>
  <text x="694" y="397" fill="#94A3B8" font-family="Inter, Arial, sans-serif" font-size="15" font-weight="700">live streaming ASR</text>
  <text x="950" y="366" fill="#F8FAFC" font-family="Inter, Arial, sans-serif" font-size="34" font-weight="800">NLP</text>
  <text x="950" y="397" fill="#94A3B8" font-family="Inter, Arial, sans-serif" font-size="15" font-weight="700">risk and QA engines</text>

  <rect x="410" y="482" width="742" height="120" rx="24" fill="#0F172A" stroke="#223047"/>
  <path d="M456 552C487 512 521 568 552 532C583 496 616 558 648 520C678 485 709 553 740 524C772 493 803 539 834 514C866 487 897 545 928 518C959 490 990 535 1022 508C1050 485 1081 500 1112 480" stroke="url(#accent)" stroke-width="5" stroke-linecap="round"/>
  <text x="452" y="520" fill="#CBD5E1" font-family="Inter, Arial, sans-serif" font-size="15" font-weight="700">Real-time intelligence pipeline</text>
  <text x="452" y="584" fill="#64748B" font-family="Inter, Arial, sans-serif" font-size="13">Audio stream -> transcript segments -> NLP signals -> alerts -> analytics</text>
</svg>
